<svg id="Layer_1" data-name="Layer 1" xmlns="http://www.w3.org/2000/svg" viewBox="0 0 90.17 82.83"><defs><style>.cls-1{fill:#ffbc16;}</style></defs><title>star-standard</title><path class="cls-1" d="M522.79,270.12a.93.93,0,0,0-.89-.63h-33l-10.21-30.35a1,1,0,0,0-1.78,0L466.65,269.5h-33a.93.93,0,0,0-.89.63.88.88,0,0,0,.34,1l26.73,18.76-10.21,30.35a.88.88,0,0,0,.34,1,1,1,0,0,0,1.1,0l26.74-18.76,26.73,18.76a1,1,0,0,0,.55.17,1,1,0,0,0,.55-.17.89.89,0,0,0,.34-1l-10.21-30.35,26.73-18.76A.89.89,0,0,0,522.79,270.12Zm-28.72,18.69a.89.89,0,0,0-.34,1l9.53,28.33-25-17.51a1,1,0,0,0-.55-.17,1,1,0,0,0-.55.17l-25,17.51,9.53-28.33a.88.88,0,0,0-.34-1l-25-17.51h30.85a.93.93,0,0,0,.89-.63l9.53-28.33,9.53,28.33a.93.93,0,0,0,.89.63H519Z" transform="translate(-432.67 -238.59)"/></svg>